<svg xmlns="http://www.w3.org/2000/svg" viewBox="0 0 972.0 536.0" width="972.0" height="536.0" font-family="-apple-system, 'PingFang TC', 'Noto Sans TC', sans-serif"><g transform="translate(0,0)"><rect width="316.0" height="236.0" rx="8" fill="#f7902b"/><rect x="109.0" y="108.0" width="98.0" height="116.0" fill="#4f8fa8" stroke="#ffffff" stroke-width="2"/><polyline points="8.0,0.0 8.0,224.0 308.0,224.0 308.0,0.0" fill="none" stroke="#ffffff" stroke-width="2"/><polyline points="194.0,108.0 193.9,105.6 193.7,103.3 193.3,101.0 192.8,98.7 192.1,96.4 191.3,94.2 190.3,92.1 189.2,90.0 187.9,88.0 186.6,86.1 185.1,84.3 183.5,82.5 181.7,80.9 179.9,79.4 178.0,78.1 176.0,76.8 173.9,75.7 171.8,74.7 169.6,73.9 167.3,73.2 165.0,72.7 162.7,72.3 160.4,72.1 158.0,72.0 155.6,72.1 153.3,72.3 151.0,72.7 148.7,73.2 146.4,73.9 144.2,74.7 142.1,75.7 140.0,76.8 138.0,78.1 136.1,79.4 134.3,80.9 132.5,82.5 130.9,84.3 129.4,86.1 128.1,88.0 126.8,90.0 125.7,92.1 124.7,94.2 123.9,96.4 123.2,98.7 122.7,101.0 122.3,103.3 122.1,105.6 122.0,108.0" fill="none" stroke="#ffffff" stroke-width="2"/><polyline points="122.0,108.0 122.1,110.4 122.3,112.7 122.7,115.0 123.2,117.3 123.9,119.6 124.7,121.8 125.7,123.9 126.8,126.0 128.1,128.0 129.4,129.9 130.9,131.7 132.5,133.5 134.3,135.1 136.1,136.6 138.0,137.9 140.0,139.2 142.1,140.3 144.2,141.3 146.4,142.1 148.7,142.8 151.0,143.3 153.3,143.7 155.6,143.9 158.0,144.0 160.4,143.9 162.7,143.7 165.0,143.3 167.3,142.8 169.6,142.1 171.8,141.3 173.9,140.3 176.0,139.2 178.0,137.9 179.9,136.6 181.7,135.1 183.5,133.5 185.1,131.7 186.6,129.9 187.9,128.0 189.2,126.0 190.3,123.9 191.3,121.8 192.1,119.6 192.8,117.3 193.3,115.0 193.7,112.7 193.9,110.4 194.0,108.0" fill="none" stroke="#ffffff" stroke-width="2" stroke-dasharray="6 5"/><polyline points="290.0,224.0 290.0,164.2 288.2,156.8 286.0,149.5 283.3,142.3 280.3,135.3 276.8,128.4 273.0,121.8 268.8,115.4 264.3,109.3 259.4,103.4 254.2,97.8 248.7,92.5 242.9,87.5 236.8,82.9 230.5,78.6 223.9,74.7 217.1,71.1 210.1,68.0 203.0,65.2 195.7,62.9 188.3,61.0 180.8,59.4 173.3,58.4 165.6,57.7 158.0,57.5 150.4,57.7 142.7,58.4 135.2,59.4 127.7,61.0 120.3,62.9 113.0,65.2 105.9,68.0 98.9,71.1 92.1,74.7 85.5,78.6 79.2,82.9 73.1,87.5 67.3,92.5 61.8,97.8 56.6,103.4 51.7,109.3 47.2,115.4 43.0,121.8 39.2,128.4 35.7,135.3 32.7,142.3 30.0,149.5 27.8,156.8 26.0,164.2 26.0,224.0" fill="none" stroke="#ffffff" stroke-width="2"/><polyline points="183.0,192.5 182.9,190.9 182.8,189.2 182.5,187.6 182.1,186.0 181.7,184.5 181.1,182.9 180.4,181.4 179.7,180.0 178.8,178.6 177.8,177.3 176.8,176.0 175.7,174.8 174.5,173.7 173.2,172.7 171.9,171.7 170.5,170.8 169.1,170.1 167.6,169.4 166.0,168.8 164.5,168.4 162.9,168.0 161.3,167.7 159.6,167.6 158.0,167.5 156.4,167.6 154.7,167.7 153.1,168.0 151.5,168.4 150.0,168.8 148.4,169.4 146.9,170.1 145.5,170.8 144.1,171.7 142.8,172.7 141.5,173.7 140.3,174.8 139.2,176.0 138.2,177.3 137.2,178.6 136.3,180.0 135.6,181.4 134.9,182.9 134.3,184.5 133.9,186.0 133.5,187.6 133.2,189.2 133.1,190.9 133.0,192.5" fill="none" stroke="#ffffff" stroke-width="1.2"/><line x1="140.0" y1="200.0" x2="176.0" y2="200.0" stroke="#ffffff" stroke-width="3"/><circle cx="158.0" cy="192.5" r="4.5" fill="none" stroke="#ffffff" stroke-width="2"/><circle cx="180.0" cy="80.0" r="12.4" fill="#ffffff" fill-opacity="0.45" stroke="#1f56e0" stroke-width="1.6" stroke-dasharray="4 3"/><circle cx="26.0" cy="200.0" r="12.4" fill="#ffffff" fill-opacity="0.45" stroke="#1f56e0" stroke-width="1.6" stroke-dasharray="4 3"/><polyline points="233.7,86.5 231.3,86.2 228.9,85.9 226.4,85.6 224.0,85.3 221.6,85.0 219.1,84.7 216.7,84.4 214.2,84.1 211.8,83.9 209.3,83.6 206.9,83.3 204.4,83.0 202.0,82.7 199.6,82.4 197.1,82.1 194.7,81.8 192.3,81.5" fill="none" stroke="#1a3ea8" stroke-width="2.6" stroke-linecap="round" stroke-linejoin="round"/><line x1="191.3" y1="89.8" x2="193.3" y2="73.2" stroke="#1a3ea8" stroke-width="4" stroke-linecap="round"/><polyline points="47.0,116.0 46.4,118.4 45.8,120.8 45.2,123.2 44.6,125.6 44.0,128.0 43.4,130.4 42.8,132.8 42.2,135.2 41.6,137.6 41.0,140.0 40.4,142.4 39.8,144.8 39.2,147.2 38.6,149.6 38.0,152.0 37.4,154.4 36.8,156.8 36.2,159.2 35.6,161.6 35.0,164.0 34.4,166.4 33.8,168.8 33.2,171.2 32.6,173.6 32.0,176.0 31.4,178.4 30.8,180.8 30.7,181.4" fill="none" stroke="#1a3ea8" stroke-width="2.6" stroke-linecap="round" stroke-linejoin="round"/><polygon points="29.0,188.0 35.3,180.9 26.8,178.8" fill="#1a3ea8"/><circle cx="158.0" cy="82.0" r="10.0" fill="#b3232d" stroke="#fff" stroke-width="1.5"/><circle cx="220.2" cy="118.6" r="10.0" fill="#b3232d" stroke="#fff" stroke-width="1.5"/><circle cx="80.9" cy="129.4" r="10.0" fill="#b3232d" stroke="#fff" stroke-width="1.5"/><circle cx="158.0" cy="52.0" r="12.4" fill="#1f56e0" stroke="#fff" stroke-width="2"/><text x="158.0" y="57.0" font-size="14" font-weight="700" fill="#fff" text-anchor="middle">A</text><circle cx="246.0" cy="88.0" r="12.4" fill="#1f56e0" stroke="#fff" stroke-width="2"/><text x="246.0" y="93.0" font-size="14" font-weight="700" fill="#fff" text-anchor="middle">B</text><circle cx="50.0" cy="104.0" r="12.4" fill="#1f56e0" stroke="#fff" stroke-width="2"/><text x="50.0" y="109.0" font-size="14" font-weight="700" fill="#fff" text-anchor="middle">C</text><circle cx="175.0" cy="50.0" r="6.4" fill="#e8782a" stroke="#3b1d0b" stroke-width="1.5"/><text x="158.0" y="255.0" font-size="15" font-weight="600" fill="#222" text-anchor="middle">分鏡 1</text></g><g transform="translate(328,0)"><rect width="316.0" height="236.0" rx="8" fill="#f7902b"/><rect x="109.0" y="108.0" width="98.0" height="116.0" fill="#4f8fa8" stroke="#ffffff" stroke-width="2"/><polyline points="8.0,0.0 8.0,224.0 308.0,224.0 308.0,0.0" fill="none" stroke="#ffffff" stroke-width="2"/><polyline points="194.0,108.0 193.9,105.6 193.7,103.3 193.3,101.0 192.8,98.7 192.1,96.4 191.3,94.2 190.3,92.1 189.2,90.0 187.9,88.0 186.6,86.1 185.1,84.3 183.5,82.5 181.7,80.9 179.9,79.4 178.0,78.1 176.0,76.8 173.9,75.7 171.8,74.7 169.6,73.9 167.3,73.2 165.0,72.7 162.7,72.3 160.4,72.1 158.0,72.0 155.6,72.1 153.3,72.3 151.0,72.7 148.7,73.2 146.4,73.9 144.2,74.7 142.1,75.7 140.0,76.8 138.0,78.1 136.1,79.4 134.3,80.9 132.5,82.5 130.9,84.3 129.4,86.1 128.1,88.0 126.8,90.0 125.7,92.1 124.7,94.2 123.9,96.4 123.2,98.7 122.7,101.0 122.3,103.3 122.1,105.6 122.0,108.0" fill="none" stroke="#ffffff" stroke-width="2"/><polyline points="122.0,108.0 122.1,110.4 122.3,112.7 122.7,115.0 123.2,117.3 123.9,119.6 124.7,121.8 125.7,123.9 126.8,126.0 128.1,128.0 129.4,129.9 130.9,131.7 132.5,133.5 134.3,135.1 136.1,136.6 138.0,137.9 140.0,139.2 142.1,140.3 144.2,141.3 146.4,142.1 148.7,142.8 151.0,143.3 153.3,143.7 155.6,143.9 158.0,144.0 160.4,143.9 162.7,143.7 165.0,143.3 167.3,142.8 169.6,142.1 171.8,141.3 173.9,140.3 176.0,139.2 178.0,137.9 179.9,136.6 181.7,135.1 183.5,133.5 185.1,131.7 186.6,129.9 187.9,128.0 189.2,126.0 190.3,123.9 191.3,121.8 192.1,119.6 192.8,117.3 193.3,115.0 193.7,112.7 193.9,110.4 194.0,108.0" fill="none" stroke="#ffffff" stroke-width="2" stroke-dasharray="6 5"/><polyline points="290.0,224.0 290.0,164.2 288.2,156.8 286.0,149.5 283.3,142.3 280.3,135.3 276.8,128.4 273.0,121.8 268.8,115.4 264.3,109.3 259.4,103.4 254.2,97.8 248.7,92.5 242.9,87.5 236.8,82.9 230.5,78.6 223.9,74.7 217.1,71.1 210.1,68.0 203.0,65.2 195.7,62.9 188.3,61.0 180.8,59.4 173.3,58.4 165.6,57.7 158.0,57.5 150.4,57.7 142.7,58.4 135.2,59.4 127.7,61.0 120.3,62.9 113.0,65.2 105.9,68.0 98.9,71.1 92.1,74.7 85.5,78.6 79.2,82.9 73.1,87.5 67.3,92.5 61.8,97.8 56.6,103.4 51.7,109.3 47.2,115.4 43.0,121.8 39.2,128.4 35.7,135.3 32.7,142.3 30.0,149.5 27.8,156.8 26.0,164.2 26.0,224.0" fill="none" stroke="#ffffff" stroke-width="2"/><polyline points="183.0,192.5 182.9,190.9 182.8,189.2 182.5,187.6 182.1,186.0 181.7,184.5 181.1,182.9 180.4,181.4 179.7,180.0 178.8,178.6 177.8,177.3 176.8,176.0 175.7,174.8 174.5,173.7 173.2,172.7 171.9,171.7 170.5,170.8 169.1,170.1 167.6,169.4 166.0,168.8 164.5,168.4 162.9,168.0 161.3,167.7 159.6,167.6 158.0,167.5 156.4,167.6 154.7,167.7 153.1,168.0 151.5,168.4 150.0,168.8 148.4,169.4 146.9,170.1 145.5,170.8 144.1,171.7 142.8,172.7 141.5,173.7 140.3,174.8 139.2,176.0 138.2,177.3 137.2,178.6 136.3,180.0 135.6,181.4 134.9,182.9 134.3,184.5 133.9,186.0 133.5,187.6 133.2,189.2 133.1,190.9 133.0,192.5" fill="none" stroke="#ffffff" stroke-width="1.2"/><line x1="140.0" y1="200.0" x2="176.0" y2="200.0" stroke="#ffffff" stroke-width="3"/><circle cx="158.0" cy="192.5" r="4.5" fill="none" stroke="#ffffff" stroke-width="2"/><circle cx="230.0" cy="112.0" r="12.4" fill="#ffffff" fill-opacity="0.45" stroke="#1f56e0" stroke-width="1.6" stroke-dasharray="4 3"/><circle cx="174.0" cy="172.0" r="12.4" fill="#ffffff" fill-opacity="0.45" stroke="#1f56e0" stroke-width="1.6" stroke-dasharray="4 3"/><polyline points="167.5,59.9 168.5,60.5 169.7,60.7 170.8,61.2 171.5,62.0 171.8,63.5 171.7,65.3 171.9,66.8 172.7,67.5 174.2,67.5 176.0,67.0 177.8,66.5 179.2,66.5 180.1,67.2 180.3,68.6 180.2,70.5 180.1,72.4 180.3,73.8 181.2,74.5 182.6,74.5 184.4,74.0 186.3,73.6 187.7,73.5 188.5,74.2 188.8,75.7 188.7,77.5 188.5,79.4 188.8,80.9 189.6,81.6 191.1,81.5 192.9,81.1 194.7,80.6 196.2,80.6 197.0,81.3 197.2,82.7 197.1,84.6 197.0,86.5 197.2,87.9 198.1,88.6 199.5,88.6 201.3,88.1 203.2,87.6 204.6,87.6 205.4,88.3 205.7,89.7 205.6,91.6 205.4,93.5 205.7,94.9 206.5,95.6 208.0,95.6 209.8,95.1 211.5,94.8 212.6,95.2 213.2,96.2 213.5,97.5 214.0,98.7 214.8,99.5 215.3,99.7" fill="none" stroke="#1a3ea8" stroke-width="2.6" stroke-linecap="round" stroke-linejoin="round"/><polygon points="220.5,104.1 216.8,95.3 211.2,102.1" fill="#1a3ea8"/><polyline points="179.2,92.4 179.2,92.4 179.0,94.9 178.9,97.4 178.7,99.9 178.5,102.4 178.4,104.9 178.2,107.4 178.1,109.8 177.9,112.3 177.7,114.8 177.6,117.3 177.4,119.8 177.2,122.3 177.1,124.8 176.9,127.2 176.8,129.7 176.6,132.2 176.4,134.7 176.3,137.2 176.1,139.7 175.9,142.2 175.8,144.6 175.6,147.1 175.5,149.6 175.3,152.1 175.2,152.8" fill="none" stroke="#1a3ea8" stroke-width="2.6" stroke-linecap="round" stroke-linejoin="round"/><polygon points="174.8,159.6 179.7,151.5 171.0,151.0" fill="#1a3ea8"/><circle cx="154.6" cy="85.7" r="10.0" fill="#b3232d" stroke="#fff" stroke-width="1.5"/><circle cx="171.0" cy="115.9" r="10.0" fill="#b3232d" stroke="#fff" stroke-width="1.5"/><circle cx="70.7" cy="184.3" r="10.0" fill="#b3232d" stroke="#fff" stroke-width="1.5"/><circle cx="158.0" cy="52.0" r="12.4" fill="#1f56e0" stroke="#fff" stroke-width="2"/><text x="158.0" y="57.0" font-size="14" font-weight="700" fill="#fff" text-anchor="middle">A</text><circle cx="180.0" cy="80.0" r="12.4" fill="#1f56e0" stroke="#fff" stroke-width="2"/><text x="180.0" y="85.0" font-size="14" font-weight="700" fill="#fff" text-anchor="middle">B</text><circle cx="26.0" cy="200.0" r="12.4" fill="#1f56e0" stroke="#fff" stroke-width="2"/><text x="26.0" y="205.0" font-size="14" font-weight="700" fill="#fff" text-anchor="middle">C</text><circle cx="175.0" cy="50.0" r="6.4" fill="#e8782a" stroke="#3b1d0b" stroke-width="1.5"/><text x="158.0" y="255.0" font-size="15" font-weight="600" fill="#222" text-anchor="middle">分鏡 2</text></g><g transform="translate(656,0)"><rect width="316.0" height="236.0" rx="8" fill="#f7902b"/><rect x="109.0" y="108.0" width="98.0" height="116.0" fill="#4f8fa8" stroke="#ffffff" stroke-width="2"/><polyline points="8.0,0.0 8.0,224.0 308.0,224.0 308.0,0.0" fill="none" stroke="#ffffff" stroke-width="2"/><polyline points="194.0,108.0 193.9,105.6 193.7,103.3 193.3,101.0 192.8,98.7 192.1,96.4 191.3,94.2 190.3,92.1 189.2,90.0 187.9,88.0 186.6,86.1 185.1,84.3 183.5,82.5 181.7,80.9 179.9,79.4 178.0,78.1 176.0,76.8 173.9,75.7 171.8,74.7 169.6,73.9 167.3,73.2 165.0,72.7 162.7,72.3 160.4,72.1 158.0,72.0 155.6,72.1 153.3,72.3 151.0,72.7 148.7,73.2 146.4,73.9 144.2,74.7 142.1,75.7 140.0,76.8 138.0,78.1 136.1,79.4 134.3,80.9 132.5,82.5 130.9,84.3 129.4,86.1 128.1,88.0 126.8,90.0 125.7,92.1 124.7,94.2 123.9,96.4 123.2,98.7 122.7,101.0 122.3,103.3 122.1,105.6 122.0,108.0" fill="none" stroke="#ffffff" stroke-width="2"/><polyline points="122.0,108.0 122.1,110.4 122.3,112.7 122.7,115.0 123.2,117.3 123.9,119.6 124.7,121.8 125.7,123.9 126.8,126.0 128.1,128.0 129.4,129.9 130.9,131.7 132.5,133.5 134.3,135.1 136.1,136.6 138.0,137.9 140.0,139.2 142.1,140.3 144.2,141.3 146.4,142.1 148.7,142.8 151.0,143.3 153.3,143.7 155.6,143.9 158.0,144.0 160.4,143.9 162.7,143.7 165.0,143.3 167.3,142.8 169.6,142.1 171.8,141.3 173.9,140.3 176.0,139.2 178.0,137.9 179.9,136.6 181.7,135.1 183.5,133.5 185.1,131.7 186.6,129.9 187.9,128.0 189.2,126.0 190.3,123.9 191.3,121.8 192.1,119.6 192.8,117.3 193.3,115.0 193.7,112.7 193.9,110.4 194.0,108.0" fill="none" stroke="#ffffff" stroke-width="2" stroke-dasharray="6 5"/><polyline points="290.0,224.0 290.0,164.2 288.2,156.8 286.0,149.5 283.3,142.3 280.3,135.3 276.8,128.4 273.0,121.8 268.8,115.4 264.3,109.3 259.4,103.4 254.2,97.8 248.7,92.5 242.9,87.5 236.8,82.9 230.5,78.6 223.9,74.7 217.1,71.1 210.1,68.0 203.0,65.2 195.7,62.9 188.3,61.0 180.8,59.4 173.3,58.4 165.6,57.7 158.0,57.5 150.4,57.7 142.7,58.4 135.2,59.4 127.7,61.0 120.3,62.9 113.0,65.2 105.9,68.0 98.9,71.1 92.1,74.7 85.5,78.6 79.2,82.9 73.1,87.5 67.3,92.5 61.8,97.8 56.6,103.4 51.7,109.3 47.2,115.4 43.0,121.8 39.2,128.4 35.7,135.3 32.7,142.3 30.0,149.5 27.8,156.8 26.0,164.2 26.0,224.0" fill="none" stroke="#ffffff" stroke-width="2"/><polyline points="183.0,192.5 182.9,190.9 182.8,189.2 182.5,187.6 182.1,186.0 181.7,184.5 181.1,182.9 180.4,181.4 179.7,180.0 178.8,178.6 177.8,177.3 176.8,176.0 175.7,174.8 174.5,173.7 173.2,172.7 171.9,171.7 170.5,170.8 169.1,170.1 167.6,169.4 166.0,168.8 164.5,168.4 162.9,168.0 161.3,167.7 159.6,167.6 158.0,167.5 156.4,167.6 154.7,167.7 153.1,168.0 151.5,168.4 150.0,168.8 148.4,169.4 146.9,170.1 145.5,170.8 144.1,171.7 142.8,172.7 141.5,173.7 140.3,174.8 139.2,176.0 138.2,177.3 137.2,178.6 136.3,180.0 135.6,181.4 134.9,182.9 134.3,184.5 133.9,186.0 133.5,187.6 133.2,189.2 133.1,190.9 133.0,192.5" fill="none" stroke="#ffffff" stroke-width="1.2"/><line x1="140.0" y1="200.0" x2="176.0" y2="200.0" stroke="#ffffff" stroke-width="3"/><circle cx="158.0" cy="192.5" r="4.5" fill="none" stroke="#ffffff" stroke-width="2"/><polyline points="221.5,121.1 221.5,121.1 219.8,122.9 218.1,124.7 216.4,126.5 214.7,128.4 213.0,130.2 211.3,132.0 209.6,133.8 207.9,135.6 206.2,137.5 204.5,139.3 202.8,141.1 201.2,142.9 199.5,144.7 197.8,146.5 196.1,148.4 194.4,150.2 192.7,152.0 191.0,153.8 189.3,155.6 189.1,155.8" fill="none" stroke="#1a3ea8" stroke-width="2.6" stroke-linecap="round" stroke-linejoin="round" stroke-dasharray="7 6"/><polygon points="184.5,160.7 193.5,157.6 187.0,151.6" fill="#1a3ea8"/><circle cx="149.6" cy="180.4" r="10.0" fill="#b3232d" stroke="#fff" stroke-width="1.5"/><circle cx="185.1" cy="128.1" r="10.0" fill="#b3232d" stroke="#fff" stroke-width="1.5"/><circle cx="65.9" cy="197.7" r="10.0" fill="#b3232d" stroke="#fff" stroke-width="1.5"/><circle cx="230.0" cy="112.0" r="12.4" fill="#1f56e0" stroke="#fff" stroke-width="2"/><text x="230.0" y="117.0" font-size="14" font-weight="700" fill="#fff" text-anchor="middle">A</text><circle cx="174.0" cy="172.0" r="12.4" fill="#1f56e0" stroke="#fff" stroke-width="2"/><text x="174.0" y="177.0" font-size="14" font-weight="700" fill="#fff" text-anchor="middle">B</text><circle cx="26.0" cy="200.0" r="12.4" fill="#1f56e0" stroke="#fff" stroke-width="2"/><text x="26.0" y="205.0" font-size="14" font-weight="700" fill="#fff" text-anchor="middle">C</text><circle cx="247.0" cy="110.0" r="6.4" fill="#e8782a" stroke="#3b1d0b" stroke-width="1.5"/><text x="158.0" y="255.0" font-size="15" font-weight="600" fill="#222" text-anchor="middle">分鏡 3</text></g><g transform="translate(0,274)"><rect width="316.0" height="236.0" rx="8" fill="#f7902b"/><rect x="109.0" y="108.0" width="98.0" height="116.0" fill="#4f8fa8" stroke="#ffffff" stroke-width="2"/><polyline points="8.0,0.0 8.0,224.0 308.0,224.0 308.0,0.0" fill="none" stroke="#ffffff" stroke-width="2"/><polyline points="194.0,108.0 193.9,105.6 193.7,103.3 193.3,101.0 192.8,98.7 192.1,96.4 191.3,94.2 190.3,92.1 189.2,90.0 187.9,88.0 186.6,86.1 185.1,84.3 183.5,82.5 181.7,80.9 179.9,79.4 178.0,78.1 176.0,76.8 173.9,75.7 171.8,74.7 169.6,73.9 167.3,73.2 165.0,72.7 162.7,72.3 160.4,72.1 158.0,72.0 155.6,72.1 153.3,72.3 151.0,72.7 148.7,73.2 146.4,73.9 144.2,74.7 142.1,75.7 140.0,76.8 138.0,78.1 136.1,79.4 134.3,80.9 132.5,82.5 130.9,84.3 129.4,86.1 128.1,88.0 126.8,90.0 125.7,92.1 124.7,94.2 123.9,96.4 123.2,98.7 122.7,101.0 122.3,103.3 122.1,105.6 122.0,108.0" fill="none" stroke="#ffffff" stroke-width="2"/><polyline points="122.0,108.0 122.1,110.4 122.3,112.7 122.7,115.0 123.2,117.3 123.9,119.6 124.7,121.8 125.7,123.9 126.8,126.0 128.1,128.0 129.4,129.9 130.9,131.7 132.5,133.5 134.3,135.1 136.1,136.6 138.0,137.9 140.0,139.2 142.1,140.3 144.2,141.3 146.4,142.1 148.7,142.8 151.0,143.3 153.3,143.7 155.6,143.9 158.0,144.0 160.4,143.9 162.7,143.7 165.0,143.3 167.3,142.8 169.6,142.1 171.8,141.3 173.9,140.3 176.0,139.2 178.0,137.9 179.9,136.6 181.7,135.1 183.5,133.5 185.1,131.7 186.6,129.9 187.9,128.0 189.2,126.0 190.3,123.9 191.3,121.8 192.1,119.6 192.8,117.3 193.3,115.0 193.7,112.7 193.9,110.4 194.0,108.0" fill="none" stroke="#ffffff" stroke-width="2" stroke-dasharray="6 5"/><polyline points="290.0,224.0 290.0,164.2 288.2,156.8 286.0,149.5 283.3,142.3 280.3,135.3 276.8,128.4 273.0,121.8 268.8,115.4 264.3,109.3 259.4,103.4 254.2,97.8 248.7,92.5 242.9,87.5 236.8,82.9 230.5,78.6 223.9,74.7 217.1,71.1 210.1,68.0 203.0,65.2 195.7,62.9 188.3,61.0 180.8,59.4 173.3,58.4 165.6,57.7 158.0,57.5 150.4,57.7 142.7,58.4 135.2,59.4 127.7,61.0 120.3,62.9 113.0,65.2 105.9,68.0 98.9,71.1 92.1,74.7 85.5,78.6 79.2,82.9 73.1,87.5 67.3,92.5 61.8,97.8 56.6,103.4 51.7,109.3 47.2,115.4 43.0,121.8 39.2,128.4 35.7,135.3 32.7,142.3 30.0,149.5 27.8,156.8 26.0,164.2 26.0,224.0" fill="none" stroke="#ffffff" stroke-width="2"/><polyline points="183.0,192.5 182.9,190.9 182.8,189.2 182.5,187.6 182.1,186.0 181.7,184.5 181.1,182.9 180.4,181.4 179.7,180.0 178.8,178.6 177.8,177.3 176.8,176.0 175.7,174.8 174.5,173.7 173.2,172.7 171.9,171.7 170.5,170.8 169.1,170.1 167.6,169.4 166.0,168.8 164.5,168.4 162.9,168.0 161.3,167.7 159.6,167.6 158.0,167.5 156.4,167.6 154.7,167.7 153.1,168.0 151.5,168.4 150.0,168.8 148.4,169.4 146.9,170.1 145.5,170.8 144.1,171.7 142.8,172.7 141.5,173.7 140.3,174.8 139.2,176.0 138.2,177.3 137.2,178.6 136.3,180.0 135.6,181.4 134.9,182.9 134.3,184.5 133.9,186.0 133.5,187.6 133.2,189.2 133.1,190.9 133.0,192.5" fill="none" stroke="#ffffff" stroke-width="1.2"/><line x1="140.0" y1="200.0" x2="176.0" y2="200.0" stroke="#ffffff" stroke-width="3"/><circle cx="158.0" cy="192.5" r="4.5" fill="none" stroke="#ffffff" stroke-width="2"/><polyline points="163.4,178.3 162.3,179.4 161.2,181.2 160.5,182.8" fill="none" stroke="#1a3ea8" stroke-width="3.6" stroke-linecap="round" stroke-linejoin="round" stroke-dasharray="1 6"/><circle cx="158.0" cy="192.5" r="10.0" fill="none" stroke="#1a3ea8" stroke-width="2.6"/><circle cx="156.2" cy="194.9" r="10.0" fill="#b3232d" stroke="#fff" stroke-width="1.5"/><circle cx="203.3" cy="141.8" r="10.0" fill="#b3232d" stroke="#fff" stroke-width="1.5"/><circle cx="65.9" cy="197.7" r="10.0" fill="#b3232d" stroke="#fff" stroke-width="1.5"/><circle cx="230.0" cy="112.0" r="12.4" fill="#1f56e0" stroke="#fff" stroke-width="2"/><text x="230.0" y="117.0" font-size="14" font-weight="700" fill="#fff" text-anchor="middle">A</text><circle cx="174.0" cy="172.0" r="12.4" fill="#1f56e0" stroke="#fff" stroke-width="2"/><text x="174.0" y="177.0" font-size="14" font-weight="700" fill="#fff" text-anchor="middle">B</text><circle cx="26.0" cy="200.0" r="12.4" fill="#1f56e0" stroke="#fff" stroke-width="2"/><text x="26.0" y="205.0" font-size="14" font-weight="700" fill="#fff" text-anchor="middle">C</text><circle cx="191.0" cy="170.0" r="6.4" fill="#e8782a" stroke="#3b1d0b" stroke-width="1.5"/><text x="158.0" y="255.0" font-size="15" font-weight="600" fill="#222" text-anchor="middle">分鏡 4</text></g></svg>
