<svg xmlns="http://www.w3.org/2000/svg" viewBox="0 0 972.0 536.0" width="972.0" height="536.0" font-family="-apple-system, 'PingFang TC', 'Noto Sans TC', sans-serif"><g transform="translate(0,0)"><rect width="316.0" height="236.0" rx="8" fill="#f7902b"/><rect x="109.0" y="108.0" width="98.0" height="116.0" fill="#4f8fa8" stroke="#ffffff" stroke-width="2"/><polyline points="8.0,0.0 8.0,224.0 308.0,224.0 308.0,0.0" fill="none" stroke="#ffffff" stroke-width="2"/><polyline points="194.0,108.0 193.9,105.6 193.7,103.3 193.3,101.0 192.8,98.7 192.1,96.4 191.3,94.2 190.3,92.1 189.2,90.0 187.9,88.0 186.6,86.1 185.1,84.3 183.5,82.5 181.7,80.9 179.9,79.4 178.0,78.1 176.0,76.8 173.9,75.7 171.8,74.7 169.6,73.9 167.3,73.2 165.0,72.7 162.7,72.3 160.4,72.1 158.0,72.0 155.6,72.1 153.3,72.3 151.0,72.7 148.7,73.2 146.4,73.9 144.2,74.7 142.1,75.7 140.0,76.8 138.0,78.1 136.1,79.4 134.3,80.9 132.5,82.5 130.9,84.3 129.4,86.1 128.1,88.0 126.8,90.0 125.7,92.1 124.7,94.2 123.9,96.4 123.2,98.7 122.7,101.0 122.3,103.3 122.1,105.6 122.0,108.0" fill="none" stroke="#ffffff" stroke-width="2"/><polyline points="122.0,108.0 122.1,110.4 122.3,112.7 122.7,115.0 123.2,117.3 123.9,119.6 124.7,121.8 125.7,123.9 126.8,126.0 128.1,128.0 129.4,129.9 130.9,131.7 132.5,133.5 134.3,135.1 136.1,136.6 138.0,137.9 140.0,139.2 142.1,140.3 144.2,141.3 146.4,142.1 148.7,142.8 151.0,143.3 153.3,143.7 155.6,143.9 158.0,144.0 160.4,143.9 162.7,143.7 165.0,143.3 167.3,142.8 169.6,142.1 171.8,141.3 173.9,140.3 176.0,139.2 178.0,137.9 179.9,136.6 181.7,135.1 183.5,133.5 185.1,131.7 186.6,129.9 187.9,128.0 189.2,126.0 190.3,123.9 191.3,121.8 192.1,119.6 192.8,117.3 193.3,115.0 193.7,112.7 193.9,110.4 194.0,108.0" fill="none" stroke="#ffffff" stroke-width="2" stroke-dasharray="6 5"/><polyline points="290.0,224.0 290.0,164.2 288.2,156.8 286.0,149.5 283.3,142.3 280.3,135.3 276.8,128.4 273.0,121.8 268.8,115.4 264.3,109.3 259.4,103.4 254.2,97.8 248.7,92.5 242.9,87.5 236.8,82.9 230.5,78.6 223.9,74.7 217.1,71.1 210.1,68.0 203.0,65.2 195.7,62.9 188.3,61.0 180.8,59.4 173.3,58.4 165.6,57.7 158.0,57.5 150.4,57.7 142.7,58.4 135.2,59.4 127.7,61.0 120.3,62.9 113.0,65.2 105.9,68.0 98.9,71.1 92.1,74.7 85.5,78.6 79.2,82.9 73.1,87.5 67.3,92.5 61.8,97.8 56.6,103.4 51.7,109.3 47.2,115.4 43.0,121.8 39.2,128.4 35.7,135.3 32.7,142.3 30.0,149.5 27.8,156.8 26.0,164.2 26.0,224.0" fill="none" stroke="#ffffff" stroke-width="2"/><polyline points="183.0,192.5 182.9,190.9 182.8,189.2 182.5,187.6 182.1,186.0 181.7,184.5 181.1,182.9 180.4,181.4 179.7,180.0 178.8,178.6 177.8,177.3 176.8,176.0 175.7,174.8 174.5,173.7 173.2,172.7 171.9,171.7 170.5,170.8 169.1,170.1 167.6,169.4 166.0,168.8 164.5,168.4 162.9,168.0 161.3,167.7 159.6,167.6 158.0,167.5 156.4,167.6 154.7,167.7 153.1,168.0 151.5,168.4 150.0,168.8 148.4,169.4 146.9,170.1 145.5,170.8 144.1,171.7 142.8,172.7 141.5,173.7 140.3,174.8 139.2,176.0 138.2,177.3 137.2,178.6 136.3,180.0 135.6,181.4 134.9,182.9 134.3,184.5 133.9,186.0 133.5,187.6 133.2,189.2 133.1,190.9 133.0,192.5" fill="none" stroke="#ffffff" stroke-width="1.2"/><line x1="140.0" y1="200.0" x2="176.0" y2="200.0" stroke="#ffffff" stroke-width="3"/><circle cx="158.0" cy="192.5" r="4.5" fill="none" stroke="#ffffff" stroke-width="2"/><circle cx="202.0" cy="172.0" r="12.4" fill="#ffffff" fill-opacity="0.45" stroke="#1f56e0" stroke-width="1.6" stroke-dasharray="4 3"/><polyline points="220.8,131.3 220.8,131.3 219.7,133.6 218.7,135.8 217.7,138.1 216.6,140.3 215.6,142.6 214.5,144.9 213.5,147.1 212.4,149.4 211.4,151.7 210.3,153.9 210.0,154.6" fill="none" stroke="#1a3ea8" stroke-width="2.6" stroke-linecap="round" stroke-linejoin="round"/><polygon points="207.2,160.7 214.7,155.0 206.7,151.3" fill="#1a3ea8"/><circle cx="195.8" cy="88.2" r="10.0" fill="#b3232d" stroke="#fff" stroke-width="1.5"/><circle cx="198.6" cy="149.2" r="10.0" fill="#b3232d" stroke="#fff" stroke-width="1.5"/><circle cx="96.3" cy="125.0" r="10.0" fill="#b3232d" stroke="#fff" stroke-width="1.5"/><circle cx="206.0" cy="60.0" r="12.4" fill="#1f56e0" stroke="#fff" stroke-width="2"/><text x="206.0" y="65.0" font-size="14" font-weight="700" fill="#fff" text-anchor="middle">A</text><circle cx="226.0" cy="120.0" r="12.4" fill="#1f56e0" stroke="#fff" stroke-width="2"/><text x="226.0" y="125.0" font-size="14" font-weight="700" fill="#fff" text-anchor="middle">B</text><circle cx="50.0" cy="104.0" r="12.4" fill="#1f56e0" stroke="#fff" stroke-width="2"/><text x="50.0" y="109.0" font-size="14" font-weight="700" fill="#fff" text-anchor="middle">C</text><circle cx="223.0" cy="58.0" r="6.4" fill="#e8782a" stroke="#3b1d0b" stroke-width="1.5"/><text x="158.0" y="255.0" font-size="15" font-weight="600" fill="#222" text-anchor="middle">分鏡 1</text></g><g transform="translate(328,0)"><rect width="316.0" height="236.0" rx="8" fill="#f7902b"/><rect x="109.0" y="108.0" width="98.0" height="116.0" fill="#4f8fa8" stroke="#ffffff" stroke-width="2"/><polyline points="8.0,0.0 8.0,224.0 308.0,224.0 308.0,0.0" fill="none" stroke="#ffffff" stroke-width="2"/><polyline points="194.0,108.0 193.9,105.6 193.7,103.3 193.3,101.0 192.8,98.7 192.1,96.4 191.3,94.2 190.3,92.1 189.2,90.0 187.9,88.0 186.6,86.1 185.1,84.3 183.5,82.5 181.7,80.9 179.9,79.4 178.0,78.1 176.0,76.8 173.9,75.7 171.8,74.7 169.6,73.9 167.3,73.2 165.0,72.7 162.7,72.3 160.4,72.1 158.0,72.0 155.6,72.1 153.3,72.3 151.0,72.7 148.7,73.2 146.4,73.9 144.2,74.7 142.1,75.7 140.0,76.8 138.0,78.1 136.1,79.4 134.3,80.9 132.5,82.5 130.9,84.3 129.4,86.1 128.1,88.0 126.8,90.0 125.7,92.1 124.7,94.2 123.9,96.4 123.2,98.7 122.7,101.0 122.3,103.3 122.1,105.6 122.0,108.0" fill="none" stroke="#ffffff" stroke-width="2"/><polyline points="122.0,108.0 122.1,110.4 122.3,112.7 122.7,115.0 123.2,117.3 123.9,119.6 124.7,121.8 125.7,123.9 126.8,126.0 128.1,128.0 129.4,129.9 130.9,131.7 132.5,133.5 134.3,135.1 136.1,136.6 138.0,137.9 140.0,139.2 142.1,140.3 144.2,141.3 146.4,142.1 148.7,142.8 151.0,143.3 153.3,143.7 155.6,143.9 158.0,144.0 160.4,143.9 162.7,143.7 165.0,143.3 167.3,142.8 169.6,142.1 171.8,141.3 173.9,140.3 176.0,139.2 178.0,137.9 179.9,136.6 181.7,135.1 183.5,133.5 185.1,131.7 186.6,129.9 187.9,128.0 189.2,126.0 190.3,123.9 191.3,121.8 192.1,119.6 192.8,117.3 193.3,115.0 193.7,112.7 193.9,110.4 194.0,108.0" fill="none" stroke="#ffffff" stroke-width="2" stroke-dasharray="6 5"/><polyline points="290.0,224.0 290.0,164.2 288.2,156.8 286.0,149.5 283.3,142.3 280.3,135.3 276.8,128.4 273.0,121.8 268.8,115.4 264.3,109.3 259.4,103.4 254.2,97.8 248.7,92.5 242.9,87.5 236.8,82.9 230.5,78.6 223.9,74.7 217.1,71.1 210.1,68.0 203.0,65.2 195.7,62.9 188.3,61.0 180.8,59.4 173.3,58.4 165.6,57.7 158.0,57.5 150.4,57.7 142.7,58.4 135.2,59.4 127.7,61.0 120.3,62.9 113.0,65.2 105.9,68.0 98.9,71.1 92.1,74.7 85.5,78.6 79.2,82.9 73.1,87.5 67.3,92.5 61.8,97.8 56.6,103.4 51.7,109.3 47.2,115.4 43.0,121.8 39.2,128.4 35.7,135.3 32.7,142.3 30.0,149.5 27.8,156.8 26.0,164.2 26.0,224.0" fill="none" stroke="#ffffff" stroke-width="2"/><polyline points="183.0,192.5 182.9,190.9 182.8,189.2 182.5,187.6 182.1,186.0 181.7,184.5 181.1,182.9 180.4,181.4 179.7,180.0 178.8,178.6 177.8,177.3 176.8,176.0 175.7,174.8 174.5,173.7 173.2,172.7 171.9,171.7 170.5,170.8 169.1,170.1 167.6,169.4 166.0,168.8 164.5,168.4 162.9,168.0 161.3,167.7 159.6,167.6 158.0,167.5 156.4,167.6 154.7,167.7 153.1,168.0 151.5,168.4 150.0,168.8 148.4,169.4 146.9,170.1 145.5,170.8 144.1,171.7 142.8,172.7 141.5,173.7 140.3,174.8 139.2,176.0 138.2,177.3 137.2,178.6 136.3,180.0 135.6,181.4 134.9,182.9 134.3,184.5 133.9,186.0 133.5,187.6 133.2,189.2 133.1,190.9 133.0,192.5" fill="none" stroke="#ffffff" stroke-width="1.2"/><line x1="140.0" y1="200.0" x2="176.0" y2="200.0" stroke="#ffffff" stroke-width="3"/><circle cx="158.0" cy="192.5" r="4.5" fill="none" stroke="#ffffff" stroke-width="2"/><polyline points="205.6,72.4 205.6,72.4 205.5,74.9 205.4,77.4 205.3,79.9 205.2,82.4 205.1,84.9 205.0,87.4 204.9,89.9 204.8,92.4 204.8,94.8 204.7,97.3 204.6,99.8 204.5,102.3 204.4,104.8 204.3,107.3 204.2,109.8 204.1,112.3 204.0,114.8 204.0,117.2 203.9,119.7 203.8,122.2 203.7,124.7 203.6,127.2 203.5,129.7 203.4,132.2 203.3,134.7 203.2,137.2 203.2,139.6 203.1,142.1 203.0,144.6 202.9,147.1 202.8,149.6 202.8,149.8" fill="none" stroke="#1a3ea8" stroke-width="2.6" stroke-linecap="round" stroke-linejoin="round" stroke-dasharray="7 6"/><polygon points="202.5,156.6 207.2,148.4 198.5,148.1" fill="#1a3ea8"/><circle cx="195.8" cy="88.2" r="10.0" fill="#b3232d" stroke="#fff" stroke-width="1.5"/><circle cx="176.2" cy="171.8" r="10.0" fill="#b3232d" stroke="#fff" stroke-width="1.5"/><circle cx="96.3" cy="125.0" r="10.0" fill="#b3232d" stroke="#fff" stroke-width="1.5"/><circle cx="206.0" cy="60.0" r="12.4" fill="#1f56e0" stroke="#fff" stroke-width="2"/><text x="206.0" y="65.0" font-size="14" font-weight="700" fill="#fff" text-anchor="middle">A</text><circle cx="202.0" cy="172.0" r="12.4" fill="#1f56e0" stroke="#fff" stroke-width="2"/><text x="202.0" y="177.0" font-size="14" font-weight="700" fill="#fff" text-anchor="middle">B</text><circle cx="50.0" cy="104.0" r="12.4" fill="#1f56e0" stroke="#fff" stroke-width="2"/><text x="50.0" y="109.0" font-size="14" font-weight="700" fill="#fff" text-anchor="middle">C</text><circle cx="223.0" cy="58.0" r="6.4" fill="#e8782a" stroke="#3b1d0b" stroke-width="1.5"/><text x="158.0" y="255.0" font-size="15" font-weight="600" fill="#222" text-anchor="middle">分鏡 2</text></g><g transform="translate(656,0)"><rect width="316.0" height="236.0" rx="8" fill="#f7902b"/><rect x="109.0" y="108.0" width="98.0" height="116.0" fill="#4f8fa8" stroke="#ffffff" stroke-width="2"/><polyline points="8.0,0.0 8.0,224.0 308.0,224.0 308.0,0.0" fill="none" stroke="#ffffff" stroke-width="2"/><polyline points="194.0,108.0 193.9,105.6 193.7,103.3 193.3,101.0 192.8,98.7 192.1,96.4 191.3,94.2 190.3,92.1 189.2,90.0 187.9,88.0 186.6,86.1 185.1,84.3 183.5,82.5 181.7,80.9 179.9,79.4 178.0,78.1 176.0,76.8 173.9,75.7 171.8,74.7 169.6,73.9 167.3,73.2 165.0,72.7 162.7,72.3 160.4,72.1 158.0,72.0 155.6,72.1 153.3,72.3 151.0,72.7 148.7,73.2 146.4,73.9 144.2,74.7 142.1,75.7 140.0,76.8 138.0,78.1 136.1,79.4 134.3,80.9 132.5,82.5 130.9,84.3 129.4,86.1 128.1,88.0 126.8,90.0 125.7,92.1 124.7,94.2 123.9,96.4 123.2,98.7 122.7,101.0 122.3,103.3 122.1,105.6 122.0,108.0" fill="none" stroke="#ffffff" stroke-width="2"/><polyline points="122.0,108.0 122.1,110.4 122.3,112.7 122.7,115.0 123.2,117.3 123.9,119.6 124.7,121.8 125.7,123.9 126.8,126.0 128.1,128.0 129.4,129.9 130.9,131.7 132.5,133.5 134.3,135.1 136.1,136.6 138.0,137.9 140.0,139.2 142.1,140.3 144.2,141.3 146.4,142.1 148.7,142.8 151.0,143.3 153.3,143.7 155.6,143.9 158.0,144.0 160.4,143.9 162.7,143.7 165.0,143.3 167.3,142.8 169.6,142.1 171.8,141.3 173.9,140.3 176.0,139.2 178.0,137.9 179.9,136.6 181.7,135.1 183.5,133.5 185.1,131.7 186.6,129.9 187.9,128.0 189.2,126.0 190.3,123.9 191.3,121.8 192.1,119.6 192.8,117.3 193.3,115.0 193.7,112.7 193.9,110.4 194.0,108.0" fill="none" stroke="#ffffff" stroke-width="2" stroke-dasharray="6 5"/><polyline points="290.0,224.0 290.0,164.2 288.2,156.8 286.0,149.5 283.3,142.3 280.3,135.3 276.8,128.4 273.0,121.8 268.8,115.4 264.3,109.3 259.4,103.4 254.2,97.8 248.7,92.5 242.9,87.5 236.8,82.9 230.5,78.6 223.9,74.7 217.1,71.1 210.1,68.0 203.0,65.2 195.7,62.9 188.3,61.0 180.8,59.4 173.3,58.4 165.6,57.7 158.0,57.5 150.4,57.7 142.7,58.4 135.2,59.4 127.7,61.0 120.3,62.9 113.0,65.2 105.9,68.0 98.9,71.1 92.1,74.7 85.5,78.6 79.2,82.9 73.1,87.5 67.3,92.5 61.8,97.8 56.6,103.4 51.7,109.3 47.2,115.4 43.0,121.8 39.2,128.4 35.7,135.3 32.7,142.3 30.0,149.5 27.8,156.8 26.0,164.2 26.0,224.0" fill="none" stroke="#ffffff" stroke-width="2"/><polyline points="183.0,192.5 182.9,190.9 182.8,189.2 182.5,187.6 182.1,186.0 181.7,184.5 181.1,182.9 180.4,181.4 179.7,180.0 178.8,178.6 177.8,177.3 176.8,176.0 175.7,174.8 174.5,173.7 173.2,172.7 171.9,171.7 170.5,170.8 169.1,170.1 167.6,169.4 166.0,168.8 164.5,168.4 162.9,168.0 161.3,167.7 159.6,167.6 158.0,167.5 156.4,167.6 154.7,167.7 153.1,168.0 151.5,168.4 150.0,168.8 148.4,169.4 146.9,170.1 145.5,170.8 144.1,171.7 142.8,172.7 141.5,173.7 140.3,174.8 139.2,176.0 138.2,177.3 137.2,178.6 136.3,180.0 135.6,181.4 134.9,182.9 134.3,184.5 133.9,186.0 133.5,187.6 133.2,189.2 133.1,190.9 133.0,192.5" fill="none" stroke="#ffffff" stroke-width="1.2"/><line x1="140.0" y1="200.0" x2="176.0" y2="200.0" stroke="#ffffff" stroke-width="3"/><circle cx="158.0" cy="192.5" r="4.5" fill="none" stroke="#ffffff" stroke-width="2"/><circle cx="110.0" cy="56.0" r="12.4" fill="#ffffff" fill-opacity="0.45" stroke="#1f56e0" stroke-width="1.6" stroke-dasharray="4 3"/><circle cx="26.0" cy="200.0" r="12.4" fill="#ffffff" fill-opacity="0.45" stroke="#1f56e0" stroke-width="1.6" stroke-dasharray="4 3"/><polyline points="193.6,59.5 191.2,59.4 188.8,59.3 186.3,59.2 183.8,59.1 181.4,59.0 178.9,58.9 176.5,58.8 174.0,58.7 171.5,58.6 169.1,58.5 166.6,58.4 164.2,58.3 161.7,58.2 159.2,58.1 156.8,57.9 154.3,57.8 151.8,57.7 149.4,57.6 146.9,57.5 144.5,57.4 142.0,57.3 139.5,57.2 137.1,57.1 134.6,57.0 132.2,56.9 129.7,56.8 129.2,56.8" fill="none" stroke="#1a3ea8" stroke-width="2.6" stroke-linecap="round" stroke-linejoin="round"/><polygon points="122.4,56.5 130.6,61.3 131.0,52.5" fill="#1a3ea8"/><polyline points="47.0,116.0 46.4,118.4 45.8,120.8 45.2,123.2 44.6,125.6 44.0,128.0 43.4,130.4 42.8,132.8 42.2,135.2 41.6,137.6 41.0,140.0 40.4,142.4 39.8,144.8 39.2,147.2 38.6,149.6 38.0,152.0 37.4,154.4 36.8,156.8 36.2,159.2 35.6,161.6 35.0,164.0 34.4,166.4 33.8,168.8 33.2,171.2 32.6,173.6 32.0,176.0 31.4,178.4 30.8,180.8 30.7,181.4" fill="none" stroke="#1a3ea8" stroke-width="2.6" stroke-linecap="round" stroke-linejoin="round"/><polygon points="29.0,188.0 35.3,180.9 26.8,178.8" fill="#1a3ea8"/><circle cx="192.4" cy="97.6" r="10.0" fill="#b3232d" stroke="#fff" stroke-width="1.5"/><circle cx="175.7" cy="184.2" r="10.0" fill="#b3232d" stroke="#fff" stroke-width="1.5"/><circle cx="80.9" cy="129.4" r="10.0" fill="#b3232d" stroke="#fff" stroke-width="1.5"/><circle cx="206.0" cy="60.0" r="12.4" fill="#1f56e0" stroke="#fff" stroke-width="2"/><text x="206.0" y="65.0" font-size="14" font-weight="700" fill="#fff" text-anchor="middle">A</text><circle cx="202.0" cy="172.0" r="12.4" fill="#1f56e0" stroke="#fff" stroke-width="2"/><text x="202.0" y="177.0" font-size="14" font-weight="700" fill="#fff" text-anchor="middle">B</text><circle cx="50.0" cy="104.0" r="12.4" fill="#1f56e0" stroke="#fff" stroke-width="2"/><text x="50.0" y="109.0" font-size="14" font-weight="700" fill="#fff" text-anchor="middle">C</text><circle cx="219.0" cy="170.0" r="6.4" fill="#e8782a" stroke="#3b1d0b" stroke-width="1.5"/><text x="158.0" y="255.0" font-size="15" font-weight="600" fill="#222" text-anchor="middle">分鏡 3</text></g><g transform="translate(0,274)"><rect width="316.0" height="236.0" rx="8" fill="#f7902b"/><rect x="109.0" y="108.0" width="98.0" height="116.0" fill="#4f8fa8" stroke="#ffffff" stroke-width="2"/><polyline points="8.0,0.0 8.0,224.0 308.0,224.0 308.0,0.0" fill="none" stroke="#ffffff" stroke-width="2"/><polyline points="194.0,108.0 193.9,105.6 193.7,103.3 193.3,101.0 192.8,98.7 192.1,96.4 191.3,94.2 190.3,92.1 189.2,90.0 187.9,88.0 186.6,86.1 185.1,84.3 183.5,82.5 181.7,80.9 179.9,79.4 178.0,78.1 176.0,76.8 173.9,75.7 171.8,74.7 169.6,73.9 167.3,73.2 165.0,72.7 162.7,72.3 160.4,72.1 158.0,72.0 155.6,72.1 153.3,72.3 151.0,72.7 148.7,73.2 146.4,73.9 144.2,74.7 142.1,75.7 140.0,76.8 138.0,78.1 136.1,79.4 134.3,80.9 132.5,82.5 130.9,84.3 129.4,86.1 128.1,88.0 126.8,90.0 125.7,92.1 124.7,94.2 123.9,96.4 123.2,98.7 122.7,101.0 122.3,103.3 122.1,105.6 122.0,108.0" fill="none" stroke="#ffffff" stroke-width="2"/><polyline points="122.0,108.0 122.1,110.4 122.3,112.7 122.7,115.0 123.2,117.3 123.9,119.6 124.7,121.8 125.7,123.9 126.8,126.0 128.1,128.0 129.4,129.9 130.9,131.7 132.5,133.5 134.3,135.1 136.1,136.6 138.0,137.9 140.0,139.2 142.1,140.3 144.2,141.3 146.4,142.1 148.7,142.8 151.0,143.3 153.3,143.7 155.6,143.9 158.0,144.0 160.4,143.9 162.7,143.7 165.0,143.3 167.3,142.8 169.6,142.1 171.8,141.3 173.9,140.3 176.0,139.2 178.0,137.9 179.9,136.6 181.7,135.1 183.5,133.5 185.1,131.7 186.6,129.9 187.9,128.0 189.2,126.0 190.3,123.9 191.3,121.8 192.1,119.6 192.8,117.3 193.3,115.0 193.7,112.7 193.9,110.4 194.0,108.0" fill="none" stroke="#ffffff" stroke-width="2" stroke-dasharray="6 5"/><polyline points="290.0,224.0 290.0,164.2 288.2,156.8 286.0,149.5 283.3,142.3 280.3,135.3 276.8,128.4 273.0,121.8 268.8,115.4 264.3,109.3 259.4,103.4 254.2,97.8 248.7,92.5 242.9,87.5 236.8,82.9 230.5,78.6 223.9,74.7 217.1,71.1 210.1,68.0 203.0,65.2 195.7,62.9 188.3,61.0 180.8,59.4 173.3,58.4 165.6,57.7 158.0,57.5 150.4,57.7 142.7,58.4 135.2,59.4 127.7,61.0 120.3,62.9 113.0,65.2 105.9,68.0 98.9,71.1 92.1,74.7 85.5,78.6 79.2,82.9 73.1,87.5 67.3,92.5 61.8,97.8 56.6,103.4 51.7,109.3 47.2,115.4 43.0,121.8 39.2,128.4 35.7,135.3 32.7,142.3 30.0,149.5 27.8,156.8 26.0,164.2 26.0,224.0" fill="none" stroke="#ffffff" stroke-width="2"/><polyline points="183.0,192.5 182.9,190.9 182.8,189.2 182.5,187.6 182.1,186.0 181.7,184.5 181.1,182.9 180.4,181.4 179.7,180.0 178.8,178.6 177.8,177.3 176.8,176.0 175.7,174.8 174.5,173.7 173.2,172.7 171.9,171.7 170.5,170.8 169.1,170.1 167.6,169.4 166.0,168.8 164.5,168.4 162.9,168.0 161.3,167.7 159.6,167.6 158.0,167.5 156.4,167.6 154.7,167.7 153.1,168.0 151.5,168.4 150.0,168.8 148.4,169.4 146.9,170.1 145.5,170.8 144.1,171.7 142.8,172.7 141.5,173.7 140.3,174.8 139.2,176.0 138.2,177.3 137.2,178.6 136.3,180.0 135.6,181.4 134.9,182.9 134.3,184.5 133.9,186.0 133.5,187.6 133.2,189.2 133.1,190.9 133.0,192.5" fill="none" stroke="#ffffff" stroke-width="1.2"/><line x1="140.0" y1="200.0" x2="176.0" y2="200.0" stroke="#ffffff" stroke-width="3"/><circle cx="158.0" cy="192.5" r="4.5" fill="none" stroke="#ffffff" stroke-width="2"/><polyline points="189.6,172.2 187.5,172.2 185.1,172.3 182.8,172.6 180.5,172.9 178.4,173.5 176.3,174.3 174.4,175.4 172.5,176.7 170.8,178.1 169.1,179.8 167.5,181.5 165.9,183.3 164.6,185.0" fill="none" stroke="#1a3ea8" stroke-width="3.6" stroke-linecap="round" stroke-linejoin="round" stroke-dasharray="1 6"/><circle cx="158.0" cy="192.5" r="10.0" fill="none" stroke="#1a3ea8" stroke-width="2.6"/><circle cx="144.7" cy="109.1" r="10.0" fill="#b3232d" stroke="#fff" stroke-width="1.5"/><circle cx="175.7" cy="184.2" r="10.0" fill="#b3232d" stroke="#fff" stroke-width="1.5"/><circle cx="86.7" cy="183.5" r="10.0" fill="#b3232d" stroke="#fff" stroke-width="1.5"/><circle cx="110.0" cy="56.0" r="12.4" fill="#1f56e0" stroke="#fff" stroke-width="2"/><text x="110.0" y="61.0" font-size="14" font-weight="700" fill="#fff" text-anchor="middle">A</text><circle cx="202.0" cy="172.0" r="12.4" fill="#1f56e0" stroke="#fff" stroke-width="2"/><text x="202.0" y="177.0" font-size="14" font-weight="700" fill="#fff" text-anchor="middle">B</text><circle cx="26.0" cy="200.0" r="12.4" fill="#1f56e0" stroke="#fff" stroke-width="2"/><text x="26.0" y="205.0" font-size="14" font-weight="700" fill="#fff" text-anchor="middle">C</text><circle cx="219.0" cy="170.0" r="6.4" fill="#e8782a" stroke="#3b1d0b" stroke-width="1.5"/><text x="158.0" y="255.0" font-size="15" font-weight="600" fill="#222" text-anchor="middle">分鏡 4</text></g></svg>
